<svg viewBox="0 0 64 64" xmlns="http://www.w3.org/2000/svg" id="Television--Streamline-Emoji" height="64" width="64">
  <desc>
    Television Streamline Emoji: https://streamlinehq.com
  </desc>
  <path d="M10 59.8a22 2.8666666666666663 0 1 0 44 0 22 2.8666666666666663 0 1 0 -44 0Z" fill="#45413c" opacity=".15" stroke-width="1"></path>
  <path d="M13.52 4.546666666666667h36.959999999999994a7.04 7.04 0 0 1 7.04 7.04V49.199999999999996a6.3999999999999995 6.3999999999999995 0 0 1 -6.3999999999999995 6.3999999999999995H12.866666666666667a6.3999999999999995 6.3999999999999995 0 0 1 -6.3999999999999995 -6.3999999999999995V11.586666666666666a7.04 7.04 0 0 1 7.04 -7.04Z" fill="#bf8256" stroke-width="1"></path>
  <path d="M50.48 4.546666666666667H13.52a7.04 7.04 0 0 0 -7.053333333333333 7.04v6.16A7.04 7.04 0 0 1 13.52 10.666666666666666h36.959999999999994a7.04 7.04 0 0 1 7.053333333333333 7.04V11.586666666666666a7.04 7.04 0 0 0 -7.053333333333333 -7.04Z" fill="#dea47a" stroke-width="1"></path>
  <path d="M13.52 4.546666666666667h36.959999999999994a7.04 7.04 0 0 1 7.04 7.04V49.199999999999996a6.3999999999999995 6.3999999999999995 0 0 1 -6.3999999999999995 6.3999999999999995H12.866666666666667a6.3999999999999995 6.3999999999999995 0 0 1 -6.3999999999999995 -6.3999999999999995V11.586666666666666a7.04 7.04 0 0 1 7.04 -7.04Z" fill="none" stroke="#45413c" stroke-linecap="round" stroke-linejoin="round" stroke-width="1"></path>
  <path d="m10.866666666666667 8.946666666666665 42.25333333333333 0 0 35.21333333333333 -42.25333333333333 0Z" fill="#f0f0f0" stroke-width="1"></path>
  <path d="M49.519999999999996 8.946666666666665H14.479999999999999a3.6133333333333333 3.6133333333333333 0 0 0 -3.6133333333333333 3.6133333333333333v5.333333333333333a3.6133333333333333 3.6133333333333333 0 0 1 3.6133333333333333 -3.6133333333333333h35.04a3.6133333333333333 3.6133333333333333 0 0 1 3.6133333333333333 3.6133333333333333v-5.333333333333333a3.6133333333333333 3.6133333333333333 0 0 0 -3.6133333333333333 -3.6133333333333333Z" fill="#bdbec0" stroke-width="1"></path>
  <path d="m10.866666666666667 8.946666666666665 42.25333333333333 0 0 35.21333333333333 -42.25333333333333 0Z" fill="none" stroke="#45413c" stroke-linecap="round" stroke-linejoin="round" stroke-width="1"></path>
  <path d="M46.14666666666666 40a83.30666666666666 83.30666666666666 0 0 1 -28.29333333333333 0 3.84 3.84 0 0 1 -3.1066666666666665 -3.0133333333333328 52.519999999999996 52.519999999999996 0 0 1 0 -20.799999999999997 3.8533333333333335 3.8533333333333335 0 0 1 3.1066666666666665 -3.0133333333333328 83.30666666666666 83.30666666666666 0 0 1 28.29333333333333 0 3.8533333333333335 3.8533333333333335 0 0 1 3.1066666666666665 3.0133333333333328 52.519999999999996 52.519999999999996 0 0 1 0 20.799999999999997A3.84 3.84 0 0 1 46.14666666666666 40Z" fill="#00b8f0" stroke-width="1"></path>
  <path d="M14.746666666666666 16.146666666666665a52.519999999999996 52.519999999999996 0 0 0 0 20.799999999999997A3.84 3.84 0 0 0 17.85333333333333 40c1.2266666666666666 0.21333333333333332 2.466666666666667 0.39999999999999997 3.6933333333333334 0.5466666666666666l26.04 -26.8a3.7466666666666666 3.7466666666666666 0 0 0 -1.44 -0.6133333333333333 83.30666666666666 83.30666666666666 0 0 0 -28.29333333333333 0 3.8533333333333335 3.8533333333333335 0 0 0 -3.1066666666666665 3.0133333333333328Z" fill="#4acfff" stroke-width="1"></path>
  <path d="M49.25333333333333 36.946666666666665a52.519999999999996 52.519999999999996 0 0 0 0 -20.799999999999997 3.8533333333333335 3.8533333333333335 0 0 0 -3.1066666666666665 -3.0133333333333328 83.30666666666666 83.30666666666666 0 0 0 -28.29333333333333 0 3.8533333333333335 3.8533333333333335 0 0 0 -3.1066666666666665 3.0133333333333328 52.519999999999996 52.519999999999996 0 0 0 0 20.799999999999997A3.84 3.84 0 0 0 17.85333333333333 40a83.30666666666666 83.30666666666666 0 0 0 28.29333333333333 0 3.84 3.84 0 0 0 3.1066666666666665 -3.0533333333333332Z" fill="none" stroke="#45413c" stroke-linecap="round" stroke-linejoin="round" stroke-width="1"></path>
  <path d="M38.666666666666664 49.44H25.333333333333332a3.52 3.52 0 0 0 -3.493333333333333 3.0133333333333328l-0.44 3.1466666666666665h21.159999999999997l-0.44 -3.1466666666666665A3.52 3.52 0 0 0 38.666666666666664 49.44Z" fill="#debb7e" stroke-width="1"></path>
  <path d="M42.12 52.45333333333333A3.52 3.52 0 0 0 38.666666666666664 49.44H25.333333333333332a3.52 3.52 0 0 0 -3.493333333333333 3.0133333333333328L21.586666666666666 54.666666666666664A3.813333333333333 3.813333333333333 0 0 1 25.333333333333332 51.63999999999999h13.333333333333332A3.84 3.84 0 0 1 42.42666666666666 54.666666666666664Z" fill="#b89558" stroke-width="1"></path>
  <path d="M38.666666666666664 49.44H25.333333333333332a3.52 3.52 0 0 0 -3.493333333333333 3.0133333333333328l-0.44 3.1466666666666665h21.159999999999997l-0.44 -3.1466666666666665A3.52 3.52 0 0 0 38.666666666666664 49.44Z" fill="none" stroke="#45413c" stroke-linecap="round" stroke-linejoin="round" stroke-width="1"></path>
  <path d="M12.64 49.879999999999995a3.08 3.08 0 1 0 6.16 0 3.08 3.08 0 1 0 -6.16 0Z" fill="#f0f0f0" stroke-width="1"></path>
  <path d="M45.213333333333324 49.879999999999995a3.08 3.08 0 1 0 6.16 0 3.08 3.08 0 1 0 -6.16 0Z" fill="#f0f0f0" stroke-width="1"></path>
  <path d="M15.719999999999999 49.01333333333333a3.0666666666666664 3.0666666666666664 0 0 1 2.8666666666666663 1.9733333333333332 3.08 3.08 0 1 0 -5.7333333333333325 0 3.0666666666666664 3.0666666666666664 0 0 1 2.8666666666666663 -1.9733333333333332Z" fill="#ffffff" stroke-width="1"></path>
  <path d="M48.29333333333333 49.01333333333333a3.08 3.08 0 0 1 2.8666666666666663 1.9733333333333332 3.08 3.08 0 1 0 -5.7333333333333325 0 3.0666666666666664 3.0666666666666664 0 0 1 2.8666666666666663 -1.9733333333333332Z" fill="#ffffff" stroke-width="1"></path>
  <path d="M12.64 49.879999999999995a3.08 3.08 0 1 0 6.16 0 3.08 3.08 0 1 0 -6.16 0Z" fill="none" stroke="#45413c" stroke-linecap="round" stroke-linejoin="round" stroke-width="1"></path>
  <path d="M45.213333333333324 49.879999999999995a3.08 3.08 0 1 0 6.16 0 3.08 3.08 0 1 0 -6.16 0Z" fill="none" stroke="#45413c" stroke-linecap="round" stroke-linejoin="round" stroke-width="1"></path>
  <path d="M17.333333333333332 60h-2.373333333333333a1.7733333333333334 1.7733333333333334 0 0 1 -1.7333333333333334 -1.4133333333333333l-0.5866666666666667 -2.986666666666667h7.04l-0.6 2.986666666666667A1.76 1.76 0 0 1 17.333333333333332 60Z" fill="#915e3a" stroke="#45413c" stroke-linecap="round" stroke-linejoin="round" stroke-width="1"></path>
  <path d="M49.04 60H46.666666666666664a1.76 1.76 0 0 1 -1.7333333333333334 -1.4133333333333333l-0.6 -2.986666666666667h7.04l-0.5866666666666667 2.986666666666667A1.7733333333333334 1.7733333333333334 0 0 1 49.04 60Z" fill="#915e3a" stroke="#45413c" stroke-linecap="round" stroke-linejoin="round" stroke-width="1"></path>
  <path d="m21.88 52.45333333333333 20.24 0" fill="none" stroke="#45413c" stroke-linecap="round" stroke-linejoin="round" stroke-width="1"></path>
</svg>